<svg xmlns="http://www.w3.org/2000/svg" viewBox="0 0 198.13 165.37"><defs><style>.cls-1{fill:none;stroke:#faf0b1;stroke-miterlimit:10;}.cls-2{fill:#faf0b1;}</style></defs><title>hi-logo2</title><g id="Lager_2" data-name="Lager 2"><g id="Lager_1-2" data-name="Lager 1"><polygon class="cls-1" points="130.78 7.2 65.23 7.2 32.46 63.96 65.23 120.72 130.78 120.72 163.55 63.96 130.78 7.2"/><path class="cls-2" d="M98,0,41.25,32.77V98.31L98,131.08l56.76-32.77V32.77Zm22.83,44.16H117V86.92h3.81v1.22H100.62V86.92h3.81V65.86H91.58V86.92h3.75v1.22H75.18V86.92H79V44.16H75.18V42.94H95.33v1.22H91.58v20h12.85v-20h-3.81V42.94h20.22Z"/><path class="cls-2" d="M41,138.37v14.7H39.92v-7H30.09v7H29v-14.7h1.07v6.76h9.83v-6.76Z"/><path class="cls-2" d="M48.45,152.2a7.2,7.2,0,0,1-2.74-2.68,7.72,7.72,0,0,1,0-7.6,7.06,7.06,0,0,1,2.74-2.68,8.31,8.31,0,0,1,7.81,0A7.15,7.15,0,0,1,59,141.89a7.82,7.82,0,0,1,0,7.65,7.24,7.24,0,0,1-2.74,2.67,8,8,0,0,1-3.91,1A7.84,7.84,0,0,1,48.45,152.2Zm7.24-.85A6.19,6.19,0,0,0,58,149a6.78,6.78,0,0,0,0-6.61,6.09,6.09,0,0,0-2.35-2.32,7.08,7.08,0,0,0-6.69,0,6.12,6.12,0,0,0-2.36,2.32,6.78,6.78,0,0,0,0,6.61A6.21,6.21,0,0,0,49,151.35a7.08,7.08,0,0,0,6.69,0Z"/><path class="cls-2" d="M66.32,139.33H61v-1H72.68v1H67.39v13.74H66.32Z"/><path class="cls-2" d="M85.47,152.1v1H75.33v-14.7h9.82v1H76.4v5.8h7.83v.94H76.4v6Z"/><path class="cls-2" d="M89.38,138.37h1.07V152.1h8.46v1H89.38Z"/><path class="cls-2" d="M107.06,138.37h1.07v14.7h-1.07Z"/><path class="cls-2" d="M114,152.62a6.08,6.08,0,0,1-2.28-1.44l.48-.8a5.66,5.66,0,0,0,2.09,1.33,7.4,7.4,0,0,0,2.76.52,5.33,5.33,0,0,0,3.18-.8,2.49,2.49,0,0,0,1.07-2.08,2.19,2.19,0,0,0-.57-1.58,3.8,3.8,0,0,0-1.41-.9,18.23,18.23,0,0,0-2.27-.65,19.91,19.91,0,0,1-2.59-.78,4.2,4.2,0,0,1-1.66-1.16,3.15,3.15,0,0,1-.68-2.11,3.59,3.59,0,0,1,.57-2,3.86,3.86,0,0,1,1.73-1.41,7.11,7.11,0,0,1,2.91-.53,8.1,8.1,0,0,1,2.39.36,7.27,7.27,0,0,1,2,1l-.4.87a6.81,6.81,0,0,0-1.94-.93,7.35,7.35,0,0,0-2.09-.31,4.93,4.93,0,0,0-3.09.82,2.56,2.56,0,0,0-1,2.12,2.15,2.15,0,0,0,.57,1.57,3.8,3.8,0,0,0,1.41.9,21,21,0,0,0,2.28.68,21.28,21.28,0,0,1,2.59.77,4.44,4.44,0,0,1,1.65,1.15,3,3,0,0,1,.68,2.07,3.46,3.46,0,0,1-.58,2,3.92,3.92,0,0,1-1.77,1.41,7.33,7.33,0,0,1-2.94.52A8.58,8.58,0,0,1,114,152.62Z"/><path class="cls-2" d="M135.13,148.93h-8.52l-1.87,4.14h-1.16l6.77-14.7h1.07l6.76,14.7H137Zm-.4-.9-3.86-8.49L127,148Z"/><path class="cls-2" d="M150,148.93h-8.52l-1.87,4.14h-1.16l6.77-14.7h1.07l6.76,14.7h-1.16Zm-.4-.9-3.86-8.49L141.94,148Z"/><path class="cls-2" d="M157.87,152.21a7.15,7.15,0,0,1-2.73-2.67,7.82,7.82,0,0,1,0-7.65,7.05,7.05,0,0,1,2.73-2.66,7.77,7.77,0,0,1,3.89-1,8,8,0,0,1,2.94.52A6,6,0,0,1,167,140.3l-.67.69a6.17,6.17,0,0,0-4.52-1.74,6.81,6.81,0,0,0-3.36.84,6.14,6.14,0,0,0-2.37,2.32,6.78,6.78,0,0,0,0,6.61,6.24,6.24,0,0,0,2.37,2.33,6.92,6.92,0,0,0,3.36.84,6.16,6.16,0,0,0,4.52-1.77l.67.69a6.1,6.1,0,0,1-2.3,1.54,8,8,0,0,1-2.93.52A7.87,7.87,0,0,1,157.87,152.21Z"/><path class="cls-2" d="M5,163.55H1.3l-.8,1.77H0L2.9,159h.46l2.89,6.3H5.76Zm-.17-.39-1.66-3.63-1.64,3.63Z"/><path class="cls-2" d="M8.3,165a3.15,3.15,0,0,1-1.17-1.15,3.39,3.39,0,0,1,0-3.27,3.15,3.15,0,0,1,1.17-1.15A3.44,3.44,0,0,1,10,159a3.4,3.4,0,0,1,1.26.22,2.55,2.55,0,0,1,1,.65l-.29.3A2.61,2.61,0,0,0,10,159.4a2.9,2.9,0,0,0-1.44.36,2.65,2.65,0,0,0-1,1,2.89,2.89,0,0,0,0,2.83,2.72,2.72,0,0,0,1,1A2.9,2.9,0,0,0,10,165a2.63,2.63,0,0,0,1.93-.76l.29.3a2.63,2.63,0,0,1-1,.65,3.48,3.48,0,0,1-1.26.23A3.44,3.44,0,0,1,8.3,165Z"/><path class="cls-2" d="M18.13,165.32l-1.51-2.1a4.45,4.45,0,0,1-.61,0h-1.8v2.06h-.46V159H16a2.79,2.79,0,0,1,1.86.57,1.91,1.91,0,0,1,.68,1.56,1.92,1.92,0,0,1-1.48,2l1.58,2.2ZM16,162.86a2.32,2.32,0,0,0,1.54-.45,1.56,1.56,0,0,0,.53-1.26,1.58,1.58,0,0,0-.53-1.27,2.38,2.38,0,0,0-1.54-.44h-1.8v3.42Z"/><path class="cls-2" d="M21.23,165a3,3,0,0,1-1.17-1.15,3.3,3.3,0,0,1,0-3.26,3.05,3.05,0,0,1,1.17-1.14A3.37,3.37,0,0,1,22.9,159a3.48,3.48,0,0,1,1.68.41,3,3,0,0,1,1.17,1.15,3.32,3.32,0,0,1,0,3.27A3,3,0,0,1,24.58,165a3.48,3.48,0,0,1-1.68.41A3.37,3.37,0,0,1,21.23,165Zm3.11-.36a2.67,2.67,0,0,0,1-1,2.89,2.89,0,0,0,0-2.83,2.6,2.6,0,0,0-1-1,3,3,0,0,0-2.87,0,2.56,2.56,0,0,0-1,1,2.89,2.89,0,0,0,0,2.83,2.62,2.62,0,0,0,1,1,3,3,0,0,0,2.87,0Z"/><path class="cls-2" d="M28.11,165.13a2.5,2.5,0,0,1-1-.62l.21-.34a2.25,2.25,0,0,0,.9.57,3.13,3.13,0,0,0,1.18.22,2.26,2.26,0,0,0,1.36-.34,1,1,0,0,0,.46-.89.92.92,0,0,0-.24-.67,1.68,1.68,0,0,0-.61-.39,8.92,8.92,0,0,0-1-.28,8.62,8.62,0,0,1-1.11-.33,1.8,1.8,0,0,1-.71-.5,1.33,1.33,0,0,1-.29-.91,1.57,1.57,0,0,1,.24-.84,1.68,1.68,0,0,1,.74-.61,3,3,0,0,1,1.25-.22,3.5,3.5,0,0,1,1,.15,2.87,2.87,0,0,1,.88.42l-.17.37a2.83,2.83,0,0,0-.84-.4,3.11,3.11,0,0,0-.89-.14,2.11,2.11,0,0,0-1.33.36,1.08,1.08,0,0,0-.45.9,1,1,0,0,0,.25.68,1.56,1.56,0,0,0,.6.39,9.2,9.2,0,0,0,1,.28,10.28,10.28,0,0,1,1.11.34,1.93,1.93,0,0,1,.71.49,1.3,1.3,0,0,1,.29.88,1.46,1.46,0,0,1-.25.84,1.67,1.67,0,0,1-.76.6,3.12,3.12,0,0,1-1.26.23A3.68,3.68,0,0,1,28.11,165.13Z"/><path class="cls-2" d="M33.59,165.13a2.46,2.46,0,0,1-1-.62l.2-.34a2.25,2.25,0,0,0,.9.57,3.13,3.13,0,0,0,1.18.22,2.26,2.26,0,0,0,1.36-.34,1,1,0,0,0,.46-.89.92.92,0,0,0-.24-.67,1.68,1.68,0,0,0-.61-.39,8.92,8.92,0,0,0-1-.28,8.62,8.62,0,0,1-1.11-.33,1.8,1.8,0,0,1-.71-.5,1.33,1.33,0,0,1-.29-.91,1.57,1.57,0,0,1,.24-.84,1.68,1.68,0,0,1,.74-.61A3.08,3.08,0,0,1,35,159a3.5,3.5,0,0,1,1,.15,2.87,2.87,0,0,1,.88.42l-.17.37a2.83,2.83,0,0,0-.84-.4,3.11,3.11,0,0,0-.89-.14,2.08,2.08,0,0,0-1.32.36,1.08,1.08,0,0,0-.45.9.94.94,0,0,0,.24.68,1.56,1.56,0,0,0,.6.39,9.2,9.2,0,0,0,1,.28,10.28,10.28,0,0,1,1.11.34,1.85,1.85,0,0,1,.71.49,1.3,1.3,0,0,1,.29.88,1.46,1.46,0,0,1-.25.84,1.67,1.67,0,0,1-.76.6,3.12,3.12,0,0,1-1.26.23A3.68,3.68,0,0,1,33.59,165.13Z"/><path class="cls-2" d="M42.25,159.44H40V159h5v.42H42.71v5.88h-.46Z"/><path class="cls-2" d="M51.25,159v6.3h-.46v-3H46.57v3h-.45V159h.45v2.9h4.22V159Z"/><path class="cls-2" d="M57.79,164.91v.41H53.44V159h4.21v.42H53.9v2.48h3.36v.41H53.9v2.58Z"/><path class="cls-2" d="M62.11,165.13a2.46,2.46,0,0,1-1-.62l.2-.34a2.25,2.25,0,0,0,.9.57,3.13,3.13,0,0,0,1.18.22,2.24,2.24,0,0,0,1.36-.34,1,1,0,0,0,.46-.89.92.92,0,0,0-.24-.67,1.6,1.6,0,0,0-.61-.39,8.92,8.92,0,0,0-1-.28,8.62,8.62,0,0,1-1.11-.33,1.8,1.8,0,0,1-.71-.5,1.33,1.33,0,0,1-.29-.91,1.57,1.57,0,0,1,.24-.84,1.68,1.68,0,0,1,.74-.61,3.08,3.08,0,0,1,1.25-.22,3.62,3.62,0,0,1,1,.15,2.93,2.93,0,0,1,.87.42l-.17.37a2.71,2.71,0,0,0-.84-.4,3.11,3.11,0,0,0-.89-.14,2.08,2.08,0,0,0-1.32.36,1.08,1.08,0,0,0-.45.9.94.94,0,0,0,.24.68,1.56,1.56,0,0,0,.6.39,9.2,9.2,0,0,0,1,.28,9.62,9.62,0,0,1,1.11.34,1.85,1.85,0,0,1,.71.49,1.3,1.3,0,0,1,.29.88,1.46,1.46,0,0,1-.25.84,1.67,1.67,0,0,1-.76.6,3.12,3.12,0,0,1-1.26.23A3.68,3.68,0,0,1,62.11,165.13Z"/><path class="cls-2" d="M68.37,159.44H66.1V159h5v.42H68.83v5.88h-.46Z"/><path class="cls-2" d="M76.61,165.32l-1.51-2.1a4.45,4.45,0,0,1-.61,0h-1.8v2.06h-.46V159h2.26a2.82,2.82,0,0,1,1.87.57,1.9,1.9,0,0,1,.67,1.56,1.92,1.92,0,0,1-1.48,2l1.58,2.2Zm-2.12-2.46a2.32,2.32,0,0,0,1.54-.45,1.53,1.53,0,0,0,.53-1.26,1.55,1.55,0,0,0-.53-1.27,2.38,2.38,0,0,0-1.54-.44h-1.8v3.42Z"/><path class="cls-2" d="M83.06,164.91v.41H78.71V159h4.21v.42H79.17v2.48h3.36v.41H79.17v2.58Z"/><path class="cls-2" d="M89.08,164.91v.41H84.73V159H89v.42H85.19v2.48h3.36v.41H85.19v2.58Z"/><path class="cls-2" d="M92,159.44H89.69V159h5v.42H92.42v5.88H92Z"/><path class="cls-2" d="M98.59,159.44v2.69H102v.41H98.59v2.78h-.46V159h4.22v.42Z"/><path class="cls-2" d="M108.19,165.32l-1.51-2.1a4.45,4.45,0,0,1-.61,0h-1.8v2.06h-.46V159h2.26a2.82,2.82,0,0,1,1.87.57,1.9,1.9,0,0,1,.67,1.56,1.92,1.92,0,0,1-1.48,2l1.58,2.2Zm-2.12-2.46a2.32,2.32,0,0,0,1.54-.45,1.53,1.53,0,0,0,.53-1.26,1.55,1.55,0,0,0-.53-1.27,2.38,2.38,0,0,0-1.54-.44h-1.8v3.42Z"/><path class="cls-2" d="M111.29,165a3,3,0,0,1-1.17-1.15,3.3,3.3,0,0,1,0-3.26,3.05,3.05,0,0,1,1.17-1.14A3.38,3.38,0,0,1,113,159a3.47,3.47,0,0,1,1.67.41,3,3,0,0,1,1.17,1.15,3.32,3.32,0,0,1,0,3.27,3,3,0,0,1-1.17,1.15,3.47,3.47,0,0,1-1.67.41A3.38,3.38,0,0,1,111.29,165Zm3.11-.36a2.77,2.77,0,0,0,1-1,3,3,0,0,0,0-2.83,2.69,2.69,0,0,0-1-1,3,3,0,0,0-2.87,0,2.56,2.56,0,0,0-1,1,2.89,2.89,0,0,0,0,2.83,2.62,2.62,0,0,0,1,1,3,3,0,0,0,2.87,0Z"/><path class="cls-2" d="M123.79,165.32v-5.39l-2.63,4.56h-.23L118.29,160v5.37h-.45V159h.38l2.82,4.87,2.82-4.87h.37v6.3Z"/><path class="cls-2" d="M130,159.44h-2.27V159h5v.42h-2.27v5.88H130Z"/><path class="cls-2" d="M139,159v6.3h-.46v-3h-4.21v3h-.46V159h.46v2.9h4.21V159Z"/><path class="cls-2" d="M145.49,164.91v.41h-4.34V159h4.21v.42H141.6v2.48H145v.41H141.6v2.58Z"/><path class="cls-2" d="M150.48,165a3.1,3.1,0,0,1-1.18-1.15,3.37,3.37,0,0,1,0-3.26,3.15,3.15,0,0,1,1.18-1.14,3.34,3.34,0,0,1,1.67-.42,3.48,3.48,0,0,1,1.68.41,3.14,3.14,0,0,1,1.6,2.78,3.11,3.11,0,0,1-.43,1.64,3.08,3.08,0,0,1-1.17,1.15,3.48,3.48,0,0,1-1.68.41A3.34,3.34,0,0,1,150.48,165Zm3.1-.36a2.83,2.83,0,0,0,1-3.83,2.62,2.62,0,0,0-1-1,3,3,0,0,0-2.86,0,2.65,2.65,0,0,0-1,1,2.89,2.89,0,0,0,0,2.83,2.72,2.72,0,0,0,1,1,3,3,0,0,0,2.86,0Z"/><path class="cls-2" d="M161.4,165.32l-1.51-2.1a4.45,4.45,0,0,1-.61,0h-1.8v2.06H157V159h2.26a2.79,2.79,0,0,1,1.86.57,1.91,1.91,0,0,1,.68,1.56,1.92,1.92,0,0,1-1.48,2l1.58,2.2Zm-2.12-2.46a2.34,2.34,0,0,0,1.54-.45,1.56,1.56,0,0,0,.53-1.26,1.58,1.58,0,0,0-.53-1.27,2.39,2.39,0,0,0-1.54-.44h-1.8v3.42Z"/><path class="cls-2" d="M163.5,159H166a3.68,3.68,0,0,1,1.75.41,3,3,0,0,1,1.18,1.12,3.35,3.35,0,0,1,0,3.25,3,3,0,0,1-1.18,1.12,3.67,3.67,0,0,1-1.75.4H163.5Zm2.46,5.89a3.33,3.33,0,0,0,1.54-.35,2.49,2.49,0,0,0,1-1,3,3,0,0,0,0-2.85,2.49,2.49,0,0,0-1-1,3.21,3.21,0,0,0-1.54-.35h-2v5.47Z"/><path class="cls-2" d="M170.93,159h.46v6.3h-.46Z"/><path class="cls-2" d="M178.72,159v6.3h-.38l-4.29-5.47v5.47h-.46V159H174l4.28,5.48V159Z"/><path class="cls-2" d="M184.81,163.55h-3.65l-.8,1.77h-.5l2.9-6.3h.46l2.9,6.3h-.5Zm-.17-.39L183,159.53l-1.65,3.63Z"/><path class="cls-2" d="M191.63,165.32l-1.5-2.1a4.45,4.45,0,0,1-.61,0h-1.8v2.06h-.46V159h2.26a2.79,2.79,0,0,1,1.86.57,1.91,1.91,0,0,1,.68,1.56,1.92,1.92,0,0,1-1.48,2l1.58,2.2Zm-2.11-2.46a2.34,2.34,0,0,0,1.54-.45,1.56,1.56,0,0,0,.53-1.26,1.58,1.58,0,0,0-.53-1.27,2.39,2.39,0,0,0-1.54-.44h-1.8v3.42Z"/><path class="cls-2" d="M195.59,163.16v2.16h-.45v-2.16L192.6,159h.5l2.28,3.71,2.28-3.71h.47Z"/></g></g></svg>